#!OML:ASF X:\für Bonn\!DataBase\2005_08_10_Bjorn_Final\c3d\bjorn.ASF
:FULLY-SPECIFIED
:DEGREES
141
root -0.794998 19.2015 3.4403 -177.252 -10.2299 183.376
lowerback -8.95845 -1.53639 -3.73642
upperback 7.29542 -1.72348 -0.963644
thorax 13.1112 -1.22532 0.663175
lowerneck -7.38449 -1.07734 2.53507
upperneck 25.3053 -4.14306 1.10961
head 9.12809 -2.26781 -0.572622
rclavicle 3.22031e-014 6.67916e-014
rhumerus -30.2946 -26.0853 -77.3775
rradius 24.5004
rwrist 26.155
rhand -8.67326 15.2763
rfingers 7.12502
rthumb 17.2609 -13.9771
lclavicle 3.22031e-014 6.67916e-014
lhumerus -151.466 48.7294 -76.5601
lradius 11.8424
lwrist -174.028
lhand -10.293 -6.89342
lfingers 7.12502
lthumb 15.7015 22.4896
rfemur -17.4071 -15.8743 18.7455
rtibia 39.629
rfoot -15.2073 4.39102
rtoes -21.4624
lfemur -12.3449 18.9159 -16.0226
ltibia 30.7799
lfoot -13.5942 -26.1873
ltoes 1.39127
142
root -0.787534 19.1941 3.43027 -176.98 -9.41227 183.203
lowerback -9.08251 -1.37311 -3.56773
upperback 7.12055 -1.50367 -0.99206
thorax 12.9665 -1.09385 0.58583
lowerneck -7.44009 -0.966347 2.72226
upperneck 25.3557 -3.96202 0.863266
head 9.14818 -2.19106 -0.672389
rclavicle 3.08116e-014 3.81667e-014
rhumerus -30.033 -25.5771 -77.8901
rradius 25.0882
rwrist 25.8782
rhand -8.64909 15.5058
rfingers 7.12502
rthumb 17.2842 -13.7456
lclavicle 3.08116e-014 3.81667e-014
lhumerus -150.58 47.327 -76.0714
lradius 12.0231
lwrist -172.66
lhand -9.3757 -5.90845
lfingers 7.12502
lthumb 16.5848 23.4029
rfemur -17.0846 -16.5556 18.8304
rtibia 38.5578
rfoot -15.9511 4.74459
rtoes -20.0782
lfemur -12.5937 18.9465 -16.2996
ltibia 31.0181
lfoot -14.0232 -25.4195
ltoes 1.59499
143
root -0.778086 19.1894 3.42216 -176.714 -8.59267 183.033
lowerback -9.17434 -1.21826 -3.42007
upperback 6.94128 -1.29656 -1.00093
thorax 12.8006 -0.971602 0.539829
lowerneck -7.38924 -0.858593 2.81211
upperneck 25.3134 -3.76798 0.66545
head 9.11897 -2.11326 -0.734348
rclavicle 1.90833e-014 -1.90833e-014
rhumerus -29.7917 -24.9052 -78.3863
rradius 25.7153
rwrist 25.5716
rhand -8.62056 15.7733
rfingers 7.12502
rthumb 17.3117 -13.4756
lclavicle 1.90833e-014 -1.90833e-014
lhumerus -148.024 47.9756 -73.3736
lradius 11.8985
lwrist -168.871
lhand -8.04593 -5.26473
lfingers 7.12502
lthumb 17.8646 23.9347
rfemur -16.866 -17.263 18.935
rtibia 37.6069
rfoot -16.6423 5.03807
rtoes -19.9469
lfemur -12.8077 18.9794 -16.5763
ltibia 31.1771
lfoot -14.3776 -24.622
ltoes 1.78411
144
root -0.768079 19.1851 3.41588 -176.452 -7.79451 182.86
lowerback -9.20892 -1.06766 -3.27718
upperback 6.74591 -1.0974 -1.012
thorax 12.583 -0.853098 0.493803
lowerneck -7.26653 -0.748251 2.93746
upperneck 25.2374 -3.56944 0.448757
head 9.06435 -2.03369 -0.80676
rclavicle -8.34896e-015 1.35174e-014
rhumerus -29.6293 -24.0571 -78.8915
rradius 26.46
rwrist 25.1702
rhand -8.74124 16.0037
rfingers 7.12502
rthumb 17.1955 -13.2554
lclavicle -8.34896e-015 1.35174e-014
lhumerus -144.086 49.8803 -68.8651
lradius 11.575
lwrist -163.629
lhand -6.39509 -4.67162
lfingers 7.12502
lthumb 19.4525 24.3753
rfemur -16.7223 -17.7963 18.9919
rtibia 36.765
rfoot -17.1552 5.46251
rtoes -19.0271
lfemur -13.0056 18.9884 -16.857
ltibia 31.2794
lfoot -14.6566 -23.8082
ltoes 1.95185
145
root -0.757976 19.1787 3.41252 -176.215 -7.00677 182.702
lowerback -9.22233 -0.900268 -3.08381
upperback 6.59071 -0.884917 -1.05362
thorax 12.3984 -0.72528 0.387049
lowerneck -7.16899 -0.662312 3.07793
upperneck 25.1449 -3.41325 0.268052
head 9.00966 -1.967 -0.873645
rclavicle 2.26615e-014 3.4191e-014
rhumerus -29.4493 -23.287 -79.425
rradius 27.2796
rwrist 24.8029
rhand -8.84088 16.263
rfingers 7.12502
rthumb 17.0996 -13.0045
lclavicle 2.26615e-014 3.4191e-014
lhumerus -138.581 52.7107 -62.4007
lradius 11.0969
lwrist -157.237
lhand -4.36108 -4.0011
lfingers 7.12502
lthumb 21.4072 24.8363
rfemur -16.6231 -18.3283 19.0485
rtibia 36.0084
rfoot -17.5133 5.93168
rtoes -18.4533
lfemur -13.2012 18.987 -17.1268
ltibia 31.3878
lfoot -14.8534 -22.9864
ltoes 2.41264
146
root -0.747698 19.1713 3.41115 -175.98 -6.26442 182.504
lowerback -9.21826 -0.761562 -2.95851
upperback 6.4554 -0.705468 -1.08078
thorax 12.2311 -0.621293 0.326708
lowerneck -7.03597 -0.564719 3.17489
upperneck 24.9431 -3.2152 0.0996149
head 8.91204 -1.87976 -0.921964
rclavicle 2.82274e-014 1.66979e-014
rhumerus -29.227 -22.4834 -79.9241
rradius 28.1538
rwrist 24.4574
rhand -8.89476 16.406
rfingers 7.12502
rthumb 17.0477 -12.866
lclavicle 2.82274e-014 1.66979e-014
lhumerus -131.128 55.874 -53.5472
lradius 10.6048
lwrist -149.901
lhand -2.88813 -3.81169
lfingers 7.12502
lthumb 22.8213 24.8582
rfemur -16.5795 -18.8255 19.0648
rtibia 35.3248
rfoot -17.7751 6.27329
rtoes -18.6085
lfemur -13.4201 18.9352 -17.4469
ltibia 31.5142
lfoot -15.0352 -22.1658
ltoes 2.92083
147
root -0.736955 19.1643 3.41156 -175.755 -5.54538 182.335
lowerback -9.17657 -0.618283 -2.79212
upperback 6.31214 -0.526882 -1.11335
thorax 12.0325 -0.513885 0.237401
lowerneck -6.92034 -0.476734 3.27504
upperneck 24.8028 -3.04775 -0.0551664
head 8.83985 -1.80697 -0.971008
rclavicle 2.00773e-014 1.19271e-014
rhumerus -29.0795 -21.5658 -80.4303
rradius 29.138
rwrist 24.0172
rhand -9.14472 16.5461
rfingers 7.12502
rthumb 16.8071 -12.7465
lclavicle 2.00773e-014 1.19271e-014
lhumerus -120.964 58.8316 -41.6167
lradius 10.1595
lwrist -141.754
lhand -2.23409 -4.17826
lfingers 7.12502
lthumb 23.4489 24.4129
rfemur -16.5817 -19.2936 19.1024
rtibia 34.72
rfoot -17.9401 6.6384
rtoes -19.1419
lfemur -13.6556 18.8596 -17.7343
ltibia 31.6579
lfoot -15.218 -21.3101
ltoes 3.25063
148
root -0.725361 19.1571 3.41249 -175.547 -4.8411 182.178
lowerback -9.14583 -0.475951 -2.6294
upperback 6.2004 -0.350853 -1.14145
thorax 11.8787 -0.410137 0.152828
lowerneck -6.76141 -0.398031 3.39282
upperneck 24.5629 -2.87985 -0.206944
head 8.72565 -1.72919 -1.01925
rclavicle 2.78299e-015 6.36111e-015
rhumerus -28.916 -20.5495 -80.9541
rradius 30.1924
rwrist 23.5393
rhand -9.46621 16.5761
rfingers 7.12502
rthumb 16.4976 -12.7425
lclavicle 2.78299e-015 6.36111e-015
lhumerus -105.951 61.2544 -24.2528
lradius 9.79648
lwrist -131.875
lhand -1.29757 -4.52313
lfingers 7.12502
lthumb 24.347 23.9504
rfemur -16.6136 -19.7083 19.1425
rtibia 34.2079
rfoot -18.1186 6.96465
rtoes -20.2968
lfemur -13.8785 18.7679 -18.0047
ltibia 31.7959
lfoot -15.3159 -20.5006
ltoes 3.90691
